:FULLY-SPECIFIED
:FORCE-ALL-JOINTS-BE-3DOF
:DEGREES
204
root -2.89729 16.3091 -36.1145 3.76275 0.716206 -2.95369
lfemur -23.9038 6.6778 -8.15698
ltibia 48.6384 0 0
lfoot -23.7916 0.408256 0
ltoes -9.75923 0 0
rfemur -23.7875 -7.52201 14.6784
rtibia 50.6473 0 0
rfoot -27.595 1.95617 0
rtoes -8.44146 0 0
lowerback 7.32385 1.94982 -1.64079
upperback -3.75709 2.54033 1.32083
thorax -8.21266 1.37242 1.9506
lowerneck -3.40995 -3.91186 -6.56662
upperneck 6.84318 -5.27744 6.0056
head 3.22759 -2.59959 2.9571
lclavicle 7.87167e-15 4.50579e-15 0
lhumerus -26.5726 -1.84472 88.8011
lradius 24.3451 0 0
lwrist -31.3377 0 0
lhand -28.2742 30.0707 0
lfingers 7.12502 0 0
lthumb -1.65079 60.0441 0
rclavicle 7.87167e-15 4.50579e-15 0
rhumerus -32.3008 1.94277 -79.8478
rradius 30.4209 0 0
rwrist 3.17751 0 0
rhand -19.833 -26.994 0
rfingers 7.12502 0 0
rthumb 6.50102 -56.8743 0
205
root -2.89816 16.3068 -36.1133 3.75498 0.719762 -2.95395
lfemur -23.9125 6.69001 -8.15089
ltibia 48.677 0 0
lfoot -23.8132 0.405478 0
ltoes -9.78102 0 0
rfemur -23.7939 -7.53625 14.6802
rtibia 50.6867 0 0
rfoot -27.6181 1.95214 0
rtoes -8.47685 0 0
lowerback 7.32304 1.95133 -1.63934
upperback -3.75253 2.54242 1.3199
thorax -8.20724 1.37325 1.94858
lowerneck -3.41169 -3.91374 -6.56414
upperneck 6.8437 -5.28006 6.00584
head 3.2282 -2.60079 2.95657
lclavicle 7.83458e-15 3.16636e-15 0
lhumerus -26.5644 -1.85977 88.8163
lradius 24.3509 0 0
lwrist -31.3293 0 0
lhand -28.2764 30.0675 0
lfingers 7.12502 0 0
lthumb -1.65287 60.0408 0
rclavicle 7.83458e-15 3.16636e-15 0
rhumerus -32.2985 1.94869 -79.8504
rradius 30.4288 0 0
rwrist 3.17059 0 0
rhand -19.8274 -27.0015 0
rfingers 7.12502 0 0
rthumb 6.50648 -56.8816 0
206
root -2.89904 16.3045 -36.1121 3.74721 0.723317 -2.9542
lfemur -23.9213 6.70223 -8.1448
ltibia 48.7155 0 0
lfoot -23.8349 0.4027 0
ltoes -9.80281 0 0
rfemur -23.8003 -7.55049 14.6821
rtibia 50.726 0 0
rfoot -27.6411 1.94811 0
rtoes -8.51223 0 0
lowerback 7.32222 1.95285 -1.63788
upperback -3.74796 2.54451 1.31897
thorax -8.20183 1.37408 1.94656
lowerneck -3.41342 -3.91562 -6.56165
upperneck 6.84422 -5.28268 6.00608
head 3.22881 -2.60198 2.95604
lclavicle 7.7975e-15 1.82693e-15 0
lhumerus -26.5562 -1.87481 88.8314
lradius 24.3567 0 0
lwrist -31.3208 0 0
lhand -28.2785 30.0642 0
lfingers 7.12502 0 0
lthumb -1.65495 60.0376 0
rclavicle 7.7975e-15 1.82693e-15 0
rhumerus -32.2963 1.9546 -79.853
rradius 30.4367 0 0
rwrist 3.16367 0 0
rhand -19.8217 -27.0091 0
rfingers 7.12502 0 0
rthumb 6.51195 -56.889 0
207
root -2.89992 16.3022 -36.1109 3.73944 0.726873 -2.95446
lfemur -23.9301 6.71444 -8.13871
ltibia 48.754 0 0
lfoot -23.8565 0.399921 0
ltoes -9.8246 0 0
rfemur -23.8068 -7.56473 14.6839
rtibia 50.7653 0 0
rfoot -27.6642 1.94407 0
rtoes -8.54762 0 0
lowerback 7.32141 1.95437 -1.63642
upperback -3.7434 2.5466 1.31803
thorax -8.19641 1.37491 1.94454
lowerneck -3.41516 -3.9175 -6.55917
upperneck 6.84474 -5.2853 6.00632
head 3.22942 -2.60318 2.95551
lclavicle 7.76041e-15 4.87498e-16 0
lhumerus -26.548 -1.88985 88.8466
lradius 24.3625 0 0
lwrist -31.3123 0 0
lhand -28.2807 30.061 0
lfingers 7.12502 0 0
lthumb -1.65703 60.0343 0
rclavicle 7.76041e-15 4.87498e-16 0
rhumerus -32.2941 1.96052 -79.8556
rradius 30.4445 0 0
rwrist 3.15675 0 0
rhand -19.816 -27.0166 0
rfingers 7.12502 0 0
rthumb 6.51741 -56.8963 0
208
root -2.9008 16.3 -36.1097 3.73167 0.730428 -2.95471
lfemur -23.9389 6.72665 -8.13262
ltibia 48.7926 0 0
lfoot -23.8782 0.397143 0
ltoes -9.8464 0 0
rfemur -23.8132 -7.57897 14.6858
rtibia 50.8047 0 0
rfoot -27.6872 1.94004 0
rtoes -8.58301 0 0
lowerback 7.3206 1.95588 -1.63497
upperback -3.73884 2.54868 1.3171
thorax -8.191 1.37573 1.94251
lowerneck -3.41689 -3.91939 -6.55669
upperneck 6.84525 -5.28792 6.00656
head 3.23003 -2.60438 2.95498
lclavicle 7.72332e-15 -8.51931e-16 0
lhumerus -26.5397 -1.90489 88.8617
lradius 24.3683 0 0
lwrist -31.3039 0 0
lhand -28.2828 30.0577 0
lfingers 7.12502 0 0
lthumb -1.65911 60.0311 0
rclavicle 7.72332e-15 -8.51931e-16 0
rhumerus -32.2919 1.96644 -79.8582
rradius 30.4524 0 0
rwrist 3.14984 0 0
rhand -19.8104 -27.0241 0
rfingers 7.12502 0 0
rthumb 6.52288 -56.9037 0
209
root -2.90167 16.2977 -36.1085 3.7239 0.733984 -2.95497
lfemur -23.9476 6.73886 -8.12652
ltibia 48.8311 0 0
lfoot -23.8998 0.394365 0
ltoes -9.86819 0 0
rfemur -23.8196 -7.59321 14.6876
rtibia 50.844 0 0
rfoot -27.7103 1.93601 0
rtoes -8.6184 0 0
lowerback 7.31979 1.9574 -1.63351
upperback -3.73428 2.55077 1.31617
thorax -8.18558 1.37656 1.94049
lowerneck -3.41863 -3.92127 -6.55421
upperneck 6.84577 -5.29055 6.0068
head 3.23064 -2.60558 2.95445
lclavicle 7.68623e-15 -2.19136e-15 0
lhumerus -26.5315 -1.91994 88.8769
lradius 24.3741 0 0
lwrist -31.2954 0 0
lhand -28.285 30.0545 0
lfingers 7.12502 0 0
lthumb -1.6612 60.0278 0
rclavicle 7.68623e-15 -2.19136e-15 0
rhumerus -32.2896 1.97236 -79.8607
rradius 30.4603 0 0
rwrist 3.14292 0 0
rhand -19.8047 -27.0316 0
rfingers 7.12502 0 0
rthumb 6.52834 -56.911 0
210
root -2.90255 16.2954 -36.1073 3.71613 0.737539 -2.95522
lfemur -23.9564 6.75108 -8.12043
ltibia 48.8697 0 0
lfoot -23.9215 0.391586 0
ltoes -9.88998 0 0
rfemur -23.8261 -7.60745 14.6895
rtibia 50.8834 0 0
rfoot -27.7333 1.93197 0
rtoes -8.65379 0 0
lowerback 7.31898 1.95891 -1.63206
upperback -3.72971 2.55286 1.31523
thorax -8.18017 1.37739 1.93847
lowerneck -3.42036 -3.92315 -6.55172
upperneck 6.84629 -5.29317 6.00704
head 3.23125 -2.60678 2.95392
lclavicle 7.64915e-15 -3.53079e-15 0
lhumerus -26.5233 -1.93498 88.892
lradius 24.3799 0 0
lwrist -31.287 0 0
lhand -28.2871 30.0512 0
lfingers 7.12502 0 0
lthumb -1.66328 60.0246 0
rclavicle 7.64915e-15 -3.53079e-15 0
rhumerus -32.2874 1.97827 -79.8633
rradius 30.4681 0 0
rwrist 3.136 0 0
rhand -19.7991 -27.0391 0
rfingers 7.12502 0 0
rthumb 6.53381 -56.9184 0
211
root -2.90343 16.2931 -36.1061 3.70836 0.741095 -2.95548
lfemur -23.9652 6.76329 -8.11434
ltibia 48.9082 0 0
lfoot -23.9431 0.388808 0
ltoes -9.91177 0 0
rfemur -23.8325 -7.62169 14.6913
rtibia 50.9227 0 0
rfoot -27.7564 1.92794 0
rtoes -8.68918 0 0
lowerback 7.31817 1.96043 -1.6306
upperback -3.72515 2.55495 1.3143
thorax -8.17475 1.37822 1.93645
lowerneck -3.4221 -3.92503 -6.54924
upperneck 6.84681 -5.29579 6.00728
head 3.23186 -2.60798 2.95339
lclavicle 7.61206e-15 -4.87022e-15 0
lhumerus -26.5151 -1.95002 88.9072
lradius 24.3857 0 0
lwrist -31.2785 0 0
lhand -28.2893 30.048 0
lfingers 7.12502 0 0
lthumb -1.66536 60.0213 0
rclavicle 7.61206e-15 -4.87022e-15 0
rhumerus -32.2852 1.98419 -79.8659
rradius 30.476 0 0
rwrist 3.12908 0 0
rhand -19.7934 -27.0466 0
rfingers 7.12502 0 0
rthumb 6.53927 -56.9257 0
212
root -2.90331 16.2911 -36.1058 3.69717 0.751316 -2.95415
lfemur -23.9719 6.76856 -8.11415
ltibia 48.9403 0 0
lfoot -23.961 0.383441 0
ltoes -9.91287 0 0
rfemur -23.8308 -7.62788 14.6864
rtibia 50.9531 0 0
rfoot -27.7733 1.91803 0
rtoes -8.68612 0 0
lowerback 7.32467 1.95671 -1.63161
upperback -3.72082 2.54976 1.31449
thorax -8.17365 1.37568 1.93785
lowerneck -3.42068 -3.92669 -6.55399
upperneck 6.83967 -5.29807 6.01433
head 3.2298 -2.60904 2.95663
lclavicle 7.40488e-15 -4.93648e-15 0
lhumerus -26.5135 -1.94502 88.908
lradius 24.3863 0 0
lwrist -31.2752 0 0
lhand -28.2878 30.0501 0
lfingers 7.12502 0 0
lthumb -1.66388 60.0234 0
rclavicle 7.40488e-15 -4.93648e-15 0
rhumerus -32.2839 1.97561 -79.8578
rradius 30.4644 0 0
rwrist 3.13951 0 0
rhand -19.7972 -27.0422 0
rfingers 7.12502 0 0
rthumb 6.53559 -56.9215 0
213
root -2.90319 16.2891 -36.1054 3.68598 0.761536 -2.95281
lfemur -23.9786 6.77383 -8.11395
ltibia 48.9724 0 0
lfoot -23.9789 0.378074 0
ltoes -9.91397 0 0
rfemur -23.8292 -7.63406 14.6815
rtibia 50.9836 0 0
rfoot -27.7902 1.90812 0
rtoes -8.68307 0 0
lowerback 7.33118 1.95299 -1.63262
upperback -3.71648 2.54456 1.31467
thorax -8.17256 1.37314 1.93925
lowerneck -3.41927 -3.92835 -6.55874
upperneck 6.83253 -5.30036 6.02139
head 3.22775 -2.61009 2.95987
lclavicle 7.1977e-15 -5.00274e-15 0
lhumerus -26.512 -1.94003 88.9088
lradius 24.3869 0 0
lwrist -31.2718 0 0
lhand -28.2862 30.0522 0
lfingers 7.12502 0 0
lthumb -1.66241 60.0256 0
rclavicle 7.1977e-15 -5.00274e-15 0
rhumerus -32.2827 1.96703 -79.8497
rradius 30.4528 0 0
rwrist 3.14995 0 0
rhand -19.801 -27.0379 0
rfingers 7.12502 0 0
rthumb 6.53191 -56.9172 0
